<svg version="1.1" id="Layer_1" xmlns="http://www.w3.org/2000/svg" xmlns:xlink="http://www.w3.org/1999/xlink" x="0px" y="0px"
     width="100%" viewBox="0 0 1024 1024" enable-background="new 0 0 1024 1024" xml:space="preserve">
<path fill="#C9C1AC" opacity="1.000000" stroke="none" 
    d="
M238.022186,490.367249 
    C240.791626,462.260101 246.926620,435.464417 257.139618,409.563599 
    C271.755737,372.496185 293.923004,340.543396 322.548676,313.125305 
    C352.356415,284.574982 387.128601,263.895813 426.451538,251.310043 
    C474.848602,235.819977 523.976318,233.166626 573.754089,244.160141 
    C625.911682,255.679230 670.863831,280.410950 708.561157,318.061951 
    C749.128296,358.579254 774.179016,407.450623 784.261902,463.812164 
    C792.535217,510.058472 789.155945,555.645081 774.617737,600.357361 
    C761.231018,641.527893 739.069397,677.461182 708.437805,707.862549 
    C666.281799,749.701477 615.633972,775.871521 556.900269,784.954102 
    C494.027069,794.676880 434.036560,784.708862 378.233490,753.723999 
    C326.726318,725.124451 288.371399,683.837219 263.311462,630.387573 
    C242.551437,586.109070 235.277267,539.371765 238.022186,490.367249 
M657.590759,284.944336 
    C598.723083,248.685883 535.054321,235.880859 466.965363,247.434677 
    C400.775055,258.666290 346.055786,290.634125 303.490143,342.554504 
    C265.955688,388.338043 246.413300,441.373444 243.467636,500.370117 
    C241.783310,534.104126 246.558411,567.111084 257.355560,599.194275 
    C278.887115,663.174377 318.934814,712.426758 376.974792,746.382874 
    C423.558411,773.636414 474.362183,785.051697 528.416870,781.981873 
    C555.727722,780.430908 582.236755,775.430481 607.783142,765.687195 
    C672.495544,741.005920 721.171021,698.013428 753.003052,636.538513 
    C776.357910,591.434814 785.484192,543.224060 781.941040,492.522827 
    C779.590210,458.882477 771.132935,426.915436 756.588867,396.578949 
    C734.353638,350.200165 701.313782,313.287506 657.590759,284.944336 
z"/>
<path fill="#C9C1AC" opacity="1.000000" stroke="none" 
    d="
M636.780396,280.099365 
    C686.381287,306.915619 723.789917,345.286194 748.983215,395.192139 
    C762.644165,422.253296 771.110229,451.030701 774.518311,481.373993 
    C780.663330,536.086060 771.586426,587.908386 745.917480,636.542786 
    C722.159058,681.557556 687.920288,716.722839 643.636475,741.986145 
    C616.309875,757.575684 587.134705,768.315369 556.062805,772.904541 
    C484.247345,783.511414 417.965729,769.222168 358.559906,726.625244 
    C307.567078,690.060791 274.469666,640.940369 258.261444,580.540283 
    C250.444397,551.410095 248.143738,521.658813 250.487595,491.474030 
    C254.975632,433.676514 276.383270,382.997009 314.403015,339.530334 
    C348.473541,300.578735 390.553955,273.799561 440.527740,259.668762 
    C468.999298,251.617996 498.041962,248.470291 527.495117,249.991638 
    C565.941650,251.977524 602.264771,262.192169 636.780396,280.099365 
M263.165009,449.510895 
    C254.362427,485.049316 252.823822,520.897461 259.175110,556.958435 
    C271.646454,627.767334 307.569489,684.178589 366.386749,724.990417 
    C430.007935,769.135559 500.631470,780.072876 575.610901,762.965454 
    C610.461548,755.013916 642.164795,739.546509 670.266541,717.299561 
    C733.247742,667.440002 766.335449,602.011780 770.500977,522.016724 
    C771.637329,500.194580 769.526733,478.424622 764.551819,457.074524 
    C749.479126,392.390167 715.016357,340.363220 660.927917,301.959381 
    C625.284363,276.651764 585.291138,261.864655 541.637756,257.083221 
    C510.329346,253.653961 479.466217,255.915588 449.037659,263.508118 
    C396.669678,276.574982 353.151733,304.192932 317.759552,344.783722 
    C291.342224,375.081329 273.425690,409.853119 263.165009,449.510895 
z"/>
<path fill="#3E593B" opacity="1.000000" stroke="none" 
    d="
M557.092285,353.825317 
    C579.884521,368.820190 591.182678,390.026428 593.390503,416.535706 
    C595.179871,438.019775 592.604614,459.445984 592.739624,480.910095 
    C592.854797,499.220856 592.986694,517.507507 595.831970,535.651489 
    C596.115356,537.458801 596.589600,539.230103 595.626709,541.578064 
    C585.275269,541.348267 575.652832,537.901367 566.425232,533.380737 
    C548.498474,524.598267 534.448486,511.318604 523.208191,494.967163 
    C511.585388,478.059357 502.439850,459.675751 491.844238,442.159424 
    C484.182159,429.492798 476.592529,416.704041 466.146423,405.995880 
    C464.697571,404.510712 463.501160,402.560944 461.229431,402.161194 
    C460.092102,402.923676 460.397064,404.023254 460.376892,404.964844 
    C460.016632,421.777191 459.134430,438.601288 459.475037,455.400391 
    C460.022095,482.385284 465.720825,507.931152 483.581146,529.391846 
    C487.213684,533.756653 491.275604,537.694214 495.465302,541.512146 
    C496.632843,542.576050 498.194855,543.360962 498.697174,545.343140 
    C496.298676,546.249023 494.163391,545.491211 492.207916,545.028259 
    C452.227203,535.561890 424.056183,507.702942 423.612396,461.790558 
    C423.404572,440.292328 424.709717,418.831055 424.672455,397.343414 
    C424.643860,380.853180 424.085510,364.399872 420.874115,348.150696 
    C420.622253,346.876221 420.314514,345.512817 421.501404,344.028564 
    C425.980896,343.963318 430.425079,345.326355 434.875183,346.446747 
    C463.029877,353.535370 484.995911,369.575958 502.254913,392.672424 
    C516.987122,412.387421 527.708679,434.459839 539.995911,455.613617 
    C544.833984,463.942749 549.905029,472.100555 556.148438,480.009003 
    C557.540955,478.098602 557.544006,476.284363 557.556580,474.539948 
    C557.674622,458.215240 558.208252,441.877258 557.745300,425.567993 
    C556.807861,392.543335 545.172546,364.230530 519.444580,342.526642 
    C518.717102,341.912933 517.722412,341.461853 517.663879,339.429443 
    C532.160461,340.540100 544.839722,346.016998 557.092285,353.825317 
z"/>
<path fill="#AC894F" opacity="1.000000" stroke="none" 
    d="
M533.272827,521.524353 
    C535.631470,524.740234 533.246826,526.423523 531.537842,528.086304 
    C521.395569,537.954895 507.937012,538.217285 496.936646,528.697571 
    C484.933044,518.309509 478.162384,504.779358 473.901489,489.773804 
    C468.497833,470.743805 469.253326,451.280579 469.771149,431.833496 
    C469.786804,431.246490 470.132446,430.668243 470.444092,429.721924 
    C474.344086,431.975494 476.252777,435.544342 478.232239,438.830414 
    C486.640839,452.789398 494.795685,466.901001 503.102203,480.921875 
    C511.683228,495.406158 520.848328,509.467041 533.272827,521.524353 
z"/>
<path fill="#3E593B" opacity="1.000000" stroke="none" 
    d="
M342.045654,625.996338 
    C342.052979,615.333679 341.982086,605.168884 342.125732,595.007141 
    C342.160614,592.538452 341.061432,588.847839 344.299438,588.090149 
    C348.177612,587.182739 352.367340,586.692627 355.556183,590.950195 
    C361.544342,598.945129 367.968689,606.614014 374.241974,614.394043 
    C375.684662,616.183228 377.250061,617.873535 379.654785,620.639771 
    C379.654785,610.862976 379.921082,602.280823 379.553009,593.726013 
    C379.338593,588.742859 381.216797,587.455566 385.893738,587.564148 
    C390.251160,587.665283 392.571716,588.289124 392.440704,593.562134 
    C392.097351,607.382629 392.412598,621.218445 392.291687,635.046631 
    C392.270508,637.465576 393.801941,641.263428 390.371765,641.948486 
    C386.387970,642.744202 381.820831,643.846985 378.477478,639.457336 
    C372.018555,630.977051 365.343079,622.661743 358.756317,614.278931 
    C357.948608,613.250916 357.134521,612.227966 355.884888,610.648254 
    C354.627960,615.819214 355.425110,620.418396 355.183624,624.940002 
    C355.006104,628.263855 355.122406,631.603027 355.094299,634.935303 
    C355.027740,642.830750 355.027740,642.632446 346.984985,642.500488 
    C343.259277,642.439331 341.890045,641.055542 342.020477,637.490479 
    C342.154419,633.830017 342.047729,630.160706 342.045654,625.996338 
z"/>
<path fill="#3E593B" opacity="1.000000" stroke="none" 
    d="
M558.969482,628.036499 
    C557.512878,631.576538 558.133911,634.932434 558.141968,638.225159 
    C558.150452,641.700562 556.605591,643.063965 553.277832,642.845154 
    C551.788513,642.747253 550.285217,642.716736 548.795776,642.796082 
    C546.026733,642.943481 544.867004,641.631348 544.868896,638.936218 
    C544.879822,623.138367 544.846191,607.340576 544.854492,591.542725 
    C544.855530,589.575500 545.338440,587.701538 547.796875,587.757568 
    C557.577881,587.980591 567.441650,586.544922 577.125183,588.641235 
    C586.748840,590.724609 592.296082,597.709290 592.265625,607.019470 
    C592.234070,616.661194 586.179016,623.865356 576.596497,626.281616 
    C570.858154,627.728577 564.985291,626.525635 558.969482,628.036499 
M558.298889,600.132751 
    C557.853943,605.418884 557.896118,610.685547 558.455933,615.964844 
    C563.723267,616.963318 568.525757,616.887451 573.228516,615.568115 
    C576.998596,614.510498 579.199463,611.715637 579.288147,607.878174 
    C579.372803,604.210449 578.054138,600.798828 574.184814,599.513367 
    C569.083191,597.818481 563.855591,597.382263 558.298889,600.132751 
z"/>
<path fill="#3E593B" opacity="1.000000" stroke="none" 
    d="
M657.142700,603.925781 
    C657.147217,607.498230 657.147217,610.585144 657.147217,615.002502 
    C667.027100,608.328003 672.613831,595.160950 687.362000,601.380005 
    C683.273621,605.538452 679.527771,609.654175 675.440857,613.397461 
    C672.731201,615.879395 672.387634,617.792908 674.656982,620.908630 
    C679.431763,627.464111 683.751831,634.350708 688.284668,641.140381 
    C680.879395,644.295715 674.974121,642.777283 670.647278,636.804810 
    C668.224670,633.460754 665.776245,630.135376 663.297180,626.743835 
    C658.478027,628.716614 656.587341,631.912109 657.109924,636.627014 
    C657.621826,641.245056 655.798706,643.354553 650.884705,643.077209 
    C644.806030,642.734131 644.062927,642.355286 644.053223,636.618469 
    C644.027344,621.311157 644.048523,606.003479 644.138855,590.696472 
    C644.151978,588.467896 643.478943,585.540039 646.129883,584.485962 
    C649.083130,583.311707 652.396118,583.510132 655.419189,584.603760 
    C657.336182,585.297302 657.018066,587.316284 657.036865,588.954407 
    C657.092407,593.782776 657.107300,598.611572 657.142700,603.925781 
z"/>
<path fill="#3E593B" opacity="1.000000" stroke="none" 
    d="
M407.715729,638.277588 
    C404.580322,634.914490 403.396210,631.052979 403.255432,627.033875 
    C402.987823,619.392273 402.937927,611.731506 403.151398,604.088562 
    C403.299561,598.783752 407.776367,600.507751 410.733307,600.153687 
    C413.585724,599.812134 415.471985,600.783691 415.384735,604.281433 
    C415.239655,610.099182 415.395416,615.925476 415.472595,621.747498 
    C415.563721,628.624146 418.286652,631.898560 423.756866,631.800720 
    C429.310028,631.701416 432.666962,627.910095 432.753296,621.517639 
    C432.822968,616.360046 433.064240,611.183716 432.733246,606.047729 
    C432.395599,600.808777 435.380005,600.608093 439.295959,600.579224 
    C443.158600,600.550720 445.560913,601.033508 445.411560,605.901794 
    C445.095428,616.209045 445.346069,626.532654 445.254242,636.848572 
    C445.235229,638.987427 446.076904,642.282288 442.548950,642.152466 
    C439.230133,642.030334 434.660889,644.843323 433.043427,638.996887 
    C424.439667,644.464966 416.106506,645.147217 407.715729,638.277588 
z"/>
<path fill="#3E593B" opacity="1.000000" stroke="none" 
    d="
M605.649109,612.348145 
    C601.076294,615.389648 600.382324,611.649231 598.932251,609.179199 
    C597.331482,606.452393 597.803894,604.450317 600.770813,603.195007 
    C608.161316,600.067932 615.696289,598.584595 623.611694,601.134888 
    C630.036255,603.204895 634.096680,608.358154 634.281799,615.276245 
    C634.464417,622.100037 634.484863,628.934692 634.308350,635.757690 
    C634.250061,638.010986 635.769470,641.564819 632.511902,642.208069 
    C629.225708,642.856873 625.243652,643.906799 622.409607,640.414856 
    C622.226562,640.189331 621.855103,640.116821 621.433228,639.903259 
    C616.271179,642.915222 610.793274,644.285339 604.786926,642.293701 
    C598.906555,640.343872 595.669983,636.289490 595.702759,630.623962 
    C595.735901,624.895325 598.966248,620.732422 604.720276,618.858643 
    C608.767090,617.540955 612.930054,617.765686 617.086853,617.659973 
    C618.739868,617.618042 621.235840,618.450684 621.458374,615.719727 
    C621.643982,613.441711 619.803589,612.026306 617.791626,611.559570 
    C613.849121,610.644897 609.864563,610.669189 605.649109,612.348145 
M610.421326,633.572571 
    C612.885193,634.187683 615.384338,634.270996 617.738403,633.323242 
    C620.218872,632.324646 621.955200,630.430847 621.645813,627.613342 
    C621.280823,624.289246 618.456116,625.545593 616.532715,625.370789 
    C615.066223,625.237671 613.528625,625.265381 612.090576,625.556641 
    C607.600281,626.466187 606.692261,629.549744 610.421326,633.572571 
z"/>
<path fill="#3E593B" opacity="1.000000" stroke="none" 
    d="
M469.425873,598.468872 
    C470.473816,601.752686 472.986816,600.975403 474.987488,600.983765 
    C478.592590,600.998596 480.035309,602.651062 480.034637,606.178894 
    C480.033966,609.660706 478.781067,611.718811 475.061066,611.225098 
    C470.341553,610.598816 468.831696,612.649719 469.245483,617.158936 
    C469.563354,620.622803 469.329224,624.138550 469.319550,627.631104 
    C469.308899,631.470154 471.359375,633.502808 474.974243,632.571045 
    C480.329712,631.190613 480.283875,635.508911 481.182770,638.231079 
    C482.294617,641.598022 478.991913,641.763550 476.926880,642.357666 
    C465.545868,645.632263 457.258057,639.656799 456.821259,627.887085 
    C456.691803,624.399414 456.790161,620.902527 456.815765,617.410156 
    C456.839294,614.202759 457.234558,611.050659 452.371460,610.823425 
    C449.697296,610.698608 449.954895,608.012268 450.196411,606.052368 
    C450.442566,604.054810 450.018005,601.319458 453.336182,601.428345 
    C456.068085,601.518005 456.593628,600.051758 456.723389,597.691956 
    C457.105988,590.734375 457.205994,591.116089 463.678192,590.769348 
    C469.670746,590.448059 469.580780,593.992126 469.425873,598.468872 
z"/>
<path fill="#AC894F" opacity="1.000000" stroke="none" 
    d="
M499.743439,370.775085 
    C499.859283,363.667511 502.275757,358.339569 508.847900,355.760345 
    C514.878967,353.393463 520.348083,354.816925 524.963989,359.111938 
    C529.312988,363.158478 530.469177,369.668762 528.219788,375.211792 
    C525.908691,380.906586 519.764648,384.627625 513.432373,384.167480 
    C506.346222,383.652557 501.541656,379.095337 499.743439,370.775085 
z"/>
<path fill="#3E593B" opacity="1.000000" stroke="none" 
    d="
M487.791046,636.829224 
    C487.778534,626.384888 487.713684,616.422546 487.805420,606.461609 
    C487.826355,604.189453 486.836304,600.934204 490.700897,600.725891 
    C494.151367,600.539978 498.552399,598.167664 500.094238,604.417664 
    C503.091095,602.505249 505.845001,600.608337 509.130707,600.031128 
    C511.302734,599.649597 514.062561,599.296936 513.942200,602.452271 
    C513.827026,605.471191 516.381104,609.934448 511.165161,611.161377 
    C501.645508,613.400757 500.351868,614.794983 500.330322,624.437683 
    C500.321045,628.588440 500.279968,632.739807 500.332123,636.889832 
    C500.369659,639.877441 500.449341,642.815796 496.108643,642.343506 
    C492.568207,641.958191 487.394257,644.225098 487.791046,636.829224 
z"/>
<path fill="#3E593B" opacity="1.000000" stroke="none" 
    d="
M527.945923,642.368530 
    C520.824036,642.268494 520.809631,642.268555 520.790161,635.766113 
    C520.759766,625.606384 520.840210,615.445312 520.684021,605.287659 
    C520.630615,601.813354 521.604309,599.555847 525.408569,600.233215 
    C528.652527,600.810669 533.568970,598.757019 533.371277,605.408691 
    C533.054749,616.059082 533.174072,626.726074 533.299377,637.383850 
    C533.341370,640.954285 532.176270,642.785217 527.945923,642.368530 
z"/>
<path fill="#3E593B" opacity="1.000000" stroke="none" 
    d="
M527.818848,595.366577 
    C521.739441,594.791016 519.078552,592.029236 519.692078,587.391113 
    C520.227478,583.343628 523.928284,580.910706 528.576294,581.651245 
    C532.073181,582.208435 534.352905,584.081726 534.479919,587.844177 
    C534.625305,592.148499 532.500427,594.657959 527.818848,595.366577 
z"/>
</svg>
